<svg width="543" height="172" viewBox="0 0 543 172" fill="none" xmlns="http://www.w3.org/2000/svg">
<path d="M302.753 29.9648H287.383V106.777H302.753V29.9648Z" fill="white"/>
<path d="M302.753 0H287.383V15.794H302.753V0Z" fill="white"/>
<path d="M503.68 47.9375H489.63C489.38 47.9375 487.94 44.6183 486.9 43.6627C485.61 42.4912 482.29 41.1245 480.58 40.8985C473.95 40.0045 452.84 40.0045 446.21 40.8985C442.64 41.3814 437.53 44.2381 436.92 48.2457C435.72 56.1582 440.03 60.4021 447.36 61.4194C463.51 63.6493 497.21 54.8634 504.46 75.7337C509.34 89.7706 502.27 101.742 488.64 105.205C478.32 107.825 450.95 107.815 440.49 105.513C430.65 103.355 421.9 96.1416 422.57 84.9717H436.88C437.01 84.9717 436.83 86.8419 437.12 87.7154C438.18 90.8495 442.67 93.6137 445.75 94.0967C452.45 95.1654 474.15 95.0113 481.15 94.2303C494.56 92.73 495.35 76.0934 481.97 73.771C465.61 70.9246 432.74 80.5736 424.14 60.7412C418.69 48.1738 424.25 34.6199 437 30.3349C446.25 27.2316 473.75 27.3651 483.65 29.0093C494.05 30.7459 502.39 36.4901 503.68 47.9169V47.9375Z" fill="white"/>
<path d="M539.47 92.0615C542.67 92.7603 542.149 102.625 541.859 105.41C541.599 107.845 538.44 117.196 535.75 117.104C532.38 116.981 534.91 109.418 533.25 107.445C532.18 106.17 527.02 107.393 527.02 105.944V93.418C527.02 93.3255 528.25 92.0513 528.35 92.0513C531.21 92.0513 537.109 91.5272 539.479 92.0513L539.47 92.0615Z" fill="white"/>
<path d="M540.79 59.9294H527.8C527.74 59.9294 527 59.169 527 59.1074V46.5811C527 44.5876 541.31 44.5876 541.31 46.5811V58.5628C541.31 58.7477 540.61 59.3848 540.78 59.9294H540.79Z" fill="white"/>
<path d="M405.599 73.543V49.8468C405.599 40.6294 399.099 33.3232 391.039 30.4871C381.609 27.168 357.549 27.5996 346.999 28.2983C333.109 29.2231 322.399 34.9468 321.289 50.3709C320.619 59.7117 320.699 74.2521 321.289 83.6442C321.829 92.2143 324.839 99.1402 332.609 103.066C342.709 108.162 375.379 107.936 386.639 105.542C396.519 103.436 405.129 96.0472 405.079 84.9903H390.769C390.629 84.9903 390.529 86.9633 390.099 87.847C388.319 91.495 384.339 93.8276 380.429 94.2592C373.109 95.071 352.649 95.1737 345.479 94.2078C343.189 93.8995 339.609 92.1629 338.059 90.3852C337.729 90.0152 336.149 87.621 336.149 87.4463V73.5533H405.599V73.543ZM336.159 47.6683C336.159 44.8219 342.389 41.2665 344.949 40.9068C352.409 39.8587 372.659 40.1053 380.449 40.8349C383.989 41.1637 390.769 44.6781 390.769 48.7576V61.5613H336.169V47.6683H336.159Z" fill="white"/>
<path d="M81.6906 47.9366H67.6406C67.3406 47.9366 65.3606 44.0318 63.9306 43.035C62.8806 42.2952 59.8406 41.0826 58.5806 40.9079C51.8706 39.9523 31.0406 40.055 24.1706 40.8565C11.3606 42.3466 10.5306 59.0449 24.9406 61.3158C41.0506 63.854 74.2106 54.8626 82.1106 75.0238C86.3806 85.9266 82.5806 98.1446 72.1706 103.262C62.2506 108.133 28.9706 107.937 17.9706 105.533C8.13061 103.365 -0.629385 96.1511 0.0506146 84.9812H14.3606C14.9406 89.9239 19.1506 93.3766 23.7606 94.1164C30.7506 95.2262 51.2506 94.9693 58.6406 94.2706C66.0306 93.5718 71.6406 87.8584 68.6806 80.0899C67.4006 76.7194 62.8906 74.2121 59.5506 73.6777C42.7106 70.9854 5.94061 81.436 0.700615 56.7944C-2.50939 41.6992 5.57061 31.8446 19.6206 29.1215C28.6706 27.3643 55.4406 27.3952 64.2906 29.5839C73.7606 31.9268 80.2506 37.7224 81.6806 47.9469L81.6906 47.9366Z" fill="white"/>
<path d="M272.543 61.5636H257.173V49.3045C257.173 46.417 253.253 41.577 250.423 40.981C246.723 40.2103 231.903 40.4158 227.723 40.8269C224.443 41.1557 221.873 43.4061 220.383 46.3553C220.143 46.8177 219.003 49.6539 219.003 49.8388V106.767H203.633V29.9653H219.003L219.273 35.9664C221.033 32.935 223.603 30.2736 226.963 29.1535C231.823 27.5402 251.933 27.8587 257.073 29.2562C263.693 31.0648 272.553 39.7582 272.553 47.126V61.5636H272.543Z" fill="white"/>
<path d="M185.602 73.5436V51.4812C185.602 41.7192 180.262 33.8581 171.432 30.6315C162.082 27.2096 136.462 27.5076 125.962 28.34C113.362 29.3265 102.372 35.122 101.282 49.2822C100.532 58.9929 100.572 75.5371 101.282 85.2786C102.462 101.401 115.212 105.995 129.112 106.796C137.502 107.279 148.862 107.279 157.252 106.796C170.352 106.036 185.522 101.145 185.062 84.9806H170.752C170.622 84.9806 170.802 86.8508 170.512 87.7243C169.262 91.4133 164.042 93.9309 160.442 94.2597C152.722 94.979 133.452 95.1948 126.002 94.1878C122.722 93.7459 116.152 90.1597 116.152 86.337V73.5333H185.602V73.5436ZM115.622 61.5619V48.7581C115.622 45.4082 121.822 41.2156 124.942 40.9074C135.312 42.3871 154.192 38.4823 163.472 41.5239C166.672 42.5721 170.752 46.1686 170.752 49.8474V60.7398C170.752 60.8015 170.012 61.5619 169.952 61.5619H115.612H115.622Z" fill="white"/>
<path d="M502.62 160.161H497.32V142.455C497.32 140.39 494.1 138.91 492.29 138.9C490.65 138.9 487.25 140.811 487.25 142.455V160.161H482.48V134.553C485.57 134.851 488.01 133.094 487.26 137.276C491.09 133.351 498.15 132.673 501.28 137.841C501.6 138.376 502.62 140.976 502.62 141.366V160.161Z" fill="white"/>
<path d="M314.418 134.553C315.248 134.686 319.018 134.358 319.188 134.553C319.438 134.83 318.578 137.307 319.968 136.731C320.318 136.587 320.828 135.827 321.458 135.539C324.848 133.998 328.568 133.196 331.738 135.817C332.238 136.228 334.548 139.711 334.548 140.277V160.16H329.778V144.634C329.778 144.048 328.728 140.76 328.218 140.246C326.648 138.643 322.318 138.632 320.728 140.246C320.218 140.76 319.168 144.058 319.168 144.634V160.16H314.398V134.553H314.418Z" fill="white"/>
<path d="M422.572 139.464C422.382 139.279 420.112 139.659 419.922 139.464C419.792 139.33 419.792 135.775 419.922 135.641C420.122 135.446 422.382 135.847 422.582 135.641C423.662 134.573 419.732 125.078 427.012 127.544C428.872 128.171 427.322 135.076 427.882 135.641C428.082 135.847 431.822 135.487 432.662 135.641V139.464H427.892V154.991C427.892 155.196 428.932 156.121 429.322 156.245C432.432 157.19 433.062 154.467 432.662 160.17C429.832 160.149 427.242 160.673 424.942 158.567C424.202 157.889 422.582 155.248 422.582 154.457C422.582 152.412 423.112 139.998 422.582 139.474L422.572 139.464Z" fill="white"/>
<path d="M371.68 135.108C374.25 135.448 377.22 133.752 376.46 137.287C379.99 133.958 384.54 133.937 388.65 136.208C389.1 136.845 385.62 140.421 385.13 140.503C384.13 140.678 382.44 137.318 378.83 140C378.4 140.318 376.99 142.137 376.99 142.466V160.716H371.69V135.108H371.68Z" fill="white"/>
<path d="M445.37 160.16H440.07V134.553C441.06 134.594 445.37 134.173 445.37 135.375V160.16Z" fill="white"/>
<path d="M445.372 124.205H440.062V130.206H445.372V124.205Z" fill="white"/>
<path d="M409.849 137.01C406.509 133.146 395.909 133.475 392.889 138.099C393.629 138.623 395.239 140.946 395.869 141.059C396.629 141.192 397.259 139.908 398.039 139.579C402.589 137.699 408.309 139.476 407.199 145.447H398.449C395.009 145.447 391.699 149.752 391.849 153.267C392.129 159.627 398.899 161.806 404.169 160.583C405.649 160.244 406.319 158.764 406.939 158.528C408.279 158.014 407.319 160.008 408.019 160.193C408.989 160.449 410.829 159.946 411.969 160.151V141.901C411.969 141.162 410.469 137.699 409.849 136.99V137.01ZM404.699 155.692C401.539 156.432 396.439 155.712 397.759 151.283C397.899 150.821 399.349 149.259 399.509 149.259H408.259C408.049 152.342 408.099 154.89 404.699 155.681V155.692Z" fill="white"/>
<path d="M305.672 149.268C307.332 149.268 306.012 142.856 305.662 141.654C302.222 129.981 286.772 131.902 285.322 144.151C283.622 158.517 294.692 164.713 305.942 156.883C302.312 151.231 302.342 155.187 299.292 155.773C294.572 156.688 290.122 154.715 290.562 149.258H305.672V149.268ZM289.502 144.911C289.962 136.742 300.852 136.896 301.162 144.911H289.502Z" fill="white"/>
<path d="M341.971 146.791C342.021 155.32 346.881 161.074 355.451 160.109C357.581 159.862 364.321 157.971 361.861 155.269C358.881 151.991 358.761 155.156 356.451 155.7C351.631 156.841 347.181 154.765 347.281 149.278H363.181C366.201 130.617 341.851 128.038 341.961 146.801L341.971 146.791ZM346.761 144.911C347.671 136.762 357.761 136.659 358.421 144.911H346.761Z" fill="white"/>
<path d="M278.37 134.007C275.28 134.305 272.84 132.548 273.59 136.73C267.95 131.777 259.59 133.935 258.35 142.032C257.03 150.623 259.38 163.642 270.56 158.391C271.53 157.939 271.89 156.727 273.06 156.881C273.64 162.348 271.84 166.705 265.88 166.18C263.73 165.996 261.93 164.053 261.66 164.053C261.24 164.053 258.9 167.003 258.23 167.506C262.67 172.685 271.95 172.274 275.63 166.324C277.06 164.023 276.69 162.553 277.32 160.529C277.51 159.902 278.34 160.19 278.37 160.149C279.24 158.761 277.71 137.511 278.37 133.996V134.007ZM272 150.078C271.61 153.973 270.1 156.46 265.94 155.771C260.72 154.908 260.46 140.861 266.02 139.576C272.63 138.045 272.47 145.31 272 150.078Z" fill="white"/>
<path d="M473.991 143C473.281 136.157 465.581 133.105 459.831 135.53C452.421 138.664 451.911 155.722 458.771 159.729C462.541 161.928 468.101 161.672 471.151 158.332C474.111 155.105 474.431 147.224 473.991 143ZM469.161 150.029C468.671 154.304 466.481 156.482 462.101 155.773C457.001 154.951 456.081 140.842 462.191 139.589C468.731 138.243 469.771 144.788 469.161 150.029Z" fill="white"/>
<path d="M111.911 135.107V152.268C111.911 157.55 121.981 157.046 121.981 153.357V135.107H127.281V160.17C126.391 160.026 122.161 160.376 121.981 160.17C121.751 159.924 122.371 158.238 121.721 157.992C118.811 161.342 113.561 161.753 110.061 159.071C109.441 158.598 107.141 156.091 107.141 155.536V135.107H111.911Z" fill="white"/>
<path d="M215.812 134.551C218.213 134.664 220.392 133.606 220.842 136.73C224.042 134.079 228.872 132.959 232.382 135.63C232.742 135.908 235.423 139.473 235.423 139.73V160.159H230.652V141.909C230.652 138.312 220.583 137.47 220.583 143.543V160.159H215.812V134.551Z" fill="white"/>
<path d="M136.82 135.107C138.23 135.374 140.63 134.748 141.83 135.066C142.54 135.261 141.54 137.214 142.91 136.731C143.29 136.597 143.89 135.652 144.76 135.364C148.2 134.224 150.7 134.203 153.78 136.207C154.22 136.854 150.75 140.41 150.26 140.502C149.26 140.677 147.57 137.317 143.96 139.999C143.53 140.317 142.12 142.136 142.12 142.465V160.715H136.82V135.107Z" fill="white"/>
<path d="M203.63 137.01C200.29 133.146 189.69 133.475 186.67 138.099C187.41 138.623 189.02 140.946 189.65 141.059C190.41 141.192 191.04 139.908 191.82 139.579C196.37 137.699 202.09 139.476 200.98 145.447H192.23C188.79 145.447 185.48 149.752 185.63 153.267C185.91 159.627 192.68 161.806 197.95 160.583C199.43 160.244 200.1 158.764 200.72 158.528C202.06 158.014 201.1 160.008 201.8 160.193C202.77 160.449 204.61 159.946 205.75 160.151V141.901C205.75 141.162 204.25 137.699 203.63 136.99V137.01ZM192.99 155.558C189.19 154.366 191.39 149.269 192.75 149.269H201.5C202.67 154.89 197.59 156.997 192.99 155.558Z" fill="white"/>
<path d="M164.39 136.739V124.213H159.09V160.168C159.98 160.024 164.21 160.374 164.39 160.168C164.62 159.922 164 158.236 164.65 157.99C170.04 162.891 178.45 160.99 179.63 153.222C181.37 141.785 177.73 128.837 164.38 136.739H164.39ZM172.01 155.729C168.3 157.712 165.35 155.123 164.92 151.167C164.48 147.19 164.04 139.771 169.03 139.02C176.3 137.921 176.48 153.345 172.01 155.729Z" fill="white"/>
</svg>
